<svg xmlns="http://www.w3.org/2000/svg" xml:space="preserve" viewBox="0 0 210 210"><g style="fill:none" transform="matrix(.0604 0 0 .0604 15.424 141.193)"><circle cx="1483.198" cy="-599.275" r="1737.051" style="opacity:.989769;fill:#000;stroke-width:14.851;paint-order:markers stroke fill"/><g style="fill:none"><path d="M657.13 370.344c-10.514-10.517-17.71-28.884-21.282-45.596-3.577 16.715-10.766 35.086-21.284 45.604-10.514 10.51-28.886 17.707-45.594 21.285 16.715 3.572 35.084 10.764 45.598 21.282 10.514 10.514 17.71 28.885 21.287 45.596 3.572-16.714 10.766-35.085 21.278-45.603 10.514-10.514 28.887-17.707 45.595-21.286-16.711-3.571-35.08-10.767-45.598-21.282z" style="fill:#fff;fill-opacity:1;stroke-width:.426531" transform="matrix(22.6399 0 0 22.6399 -12912.36 -9465.784)"/><g style="fill:#000"><path d="m-23.485 11.05-5.954 5.953 9.701 9.702a12.632 12.632 0 0 0-1.246 5.431 12.632 12.632 0 0 0 8.422 11.891v35.168a12.632 12.632 0 0 0-8.422 11.891A12.632 12.632 0 0 0-8.352 103.72 12.632 12.632 0 0 0 4.28 91.086a12.632 12.632 0 0 0-8.421-11.89V44.026a12.632 12.632 0 0 0 1.221-.505L13.957 60.39a12.632 12.632 0 0 0-1.247 5.432 12.632 12.632 0 0 0 12.632 12.632 12.632 12.632 0 0 0 12.633-12.632A12.632 12.632 0 0 0 25.342 53.19a12.632 12.632 0 0 0-5.431 1.246L3.034 37.568a12.632 12.632 0 0 0 1.255-5.432A12.632 12.632 0 0 0-8.343 19.504a12.632 12.632 0 0 0-5.432 1.255l-9.702-9.71z" style="fill:#000;stroke-width:8.42143" transform="matrix(14.48954 0 0 14.48954 1472.068 -1450.764)"/></g></g></g></svg>