<?xml version="1.0" encoding="UTF-8" standalone="no"?>
<svg
		viewBox="0 0 512 512"
		fill-rule="evenodd"
		clip-rule="evenodd"
		stroke-linejoin="round"
		stroke-miterlimit="2"
		version="1.1"
		id="svg14"
		xml:space="preserve"
		xmlns="http://www.w3.org/2000/svg"
>
	<g
			transform="translate(6 6) scale(5.85938)"
			id="g7"><clipPath
       id="prefix__a"><path
         d="M0 0h85.333v85.333H0z"
         id="path1" /></clipPath>
		<g
				clip-path="url(#prefix__a)"
				id="g6"><path
         d="m 63.4,77.333 h 16.345 c 3.017,0 5.5,-2.483 5.5,-5.5 L 85.244,71.746 85.009,57.021 c -0.02583,-1.574563 -0.724748,-3.062677 -1.92,-4.088 L 32.212,9.324 C 31.214981,8.4694553 29.945123,7.9998207 28.632,8 H 13.5 C 10.483,8 8,10.483 8,13.5 v 14.67 c 0,1.587 0.685,3.095 1.879,4.14 l 49.9,43.663 c 1.002168,0.876734 2.288458,1.359981 3.62,1.36 z"
         fill="#00d886"
         fill-rule="nonzero"
         id="path2"
         style="fill:#f46036;fill-opacity:1" />
			<path
					d="M 49.013,58 H 59.875 C 62.138,58 64,56.138 64,53.875 V 41.309 c 0,-0.2 -0.014,-0.4 -0.044,-0.598 L 58.508,3.527 C 58.206056,1.5044423 56.471964,0.00575488 54.427,0 H 39.029 c -2.263,0 -4.125,1.862 -4.125,4.125 v 0.001 l 0.005,18.505 c 0,0.425 0.066,0.848 0.195,1.253 l 9.979,31.246 c 0.548783,1.707852 2.136146,2.867071 3.93,2.87 z"
					fill="url(#prefix___Linear2)"
					fill-rule="nonzero"
					transform="scale(1.33333)"
					id="path3"
			/>
			<path
					d="m 4.125,64 h 34.127 c 1.657441,-0.0018 3.15339,-0.993891 3.8,-2.52 L 57.85,24.057 c 0.219,-0.518 0.33,-1.076 0.324,-1.638 L 58.024,4.09 C 58.005,1.841 56.15,0 53.9,0 H 36.234 C 35.42872,2.5124608e-4 34.641081,0.23591741 33.968,0.678 L 1.86,21.787 C 0.69965913,22.549988 7.1972121e-4,23.845281 0,25.234 V 59.875 C 0,62.138 1.862,64 4.125,64 Z"
					fill="url(#prefix___Linear3)"
					fill-rule="nonzero"
					transform="scale(1.33333)"
					id="path4"
			/>
			<path
					fill-rule="nonzero"
					d="M 16,16 H 69.333 V 69.333 H 16 Z"
					id="path5"
			/></g></g>
	<defs
			id="defs14"><linearGradient
       id="prefix___Linear2"
       x1="0"
       y1="0"
       x2="1"
       y2="0"
       gradientUnits="userSpaceOnUse"
       gradientTransform="rotate(-114.874 50.182 7.604) scale(58.921)"><stop
         offset="0"
         stop-color="#00d886"
         id="stop7"
         style="stop-color:#f46036;stop-opacity:1;" /><stop
			offset="0.23999999"
			stop-color="#00d886"
			id="stop8"
			style="stop-color:#f46036;stop-opacity:1;"/><stop
			offset="0.50999999"
			stop-color="#007dfe"
			id="stop9"
			style="stop-color:#0061ff;stop-opacity:1;"/><stop
			offset="1"
			stop-color="#007dfe"
			id="stop10"
			style="stop-color:#0061ff;stop-opacity:1;"/></linearGradient>
		<linearGradient
				id="prefix___Linear3"
				x1="0"
				y1="0"
				x2="1"
				y2="0"
				gradientUnits="userSpaceOnUse"
				gradientTransform="scale(-82.867) rotate(-45 -.42 .845)"><stop
         offset="0"
         stop-color="#007dfe"
         id="stop11"
         style="stop-color:#0061ff;stop-opacity:1;" />
			<stop
					offset="0.27000001"
					stop-color="#007dfe"
					id="stop12"
					style="stop-color:#0061ff;stop-opacity:1;"/>
			<stop
					offset="0.69999999"
					stop-color="#d249fc"
					id="stop13"
					style="stop-color:#60efff;stop-opacity:1;"/>
			<stop
					offset="1"
					stop-color="#d249fc"
					id="stop14"
					style="stop-color:#60efff;stop-opacity:1;"/></linearGradient>
		<clipPath
				id="a"><path
         d="M0 .113h91.887V92H0Zm0 0"
         id="path1-5" /></clipPath></defs>
	<text
			xml:space="preserve"
			style="font-style:normal;font-variant:normal;font-weight:600;font-stretch:normal;font-size:182.952px;line-height:0;font-family:'JetBrains Sans';-inkscape-font-specification:'JetBrains Sans Semi-Bold';text-align:center;letter-spacing:0px;writing-mode:lr-tb;direction:ltr;text-anchor:middle;display:inline;opacity:0.989769;fill:#000000;fill-opacity:1;stroke-width:27.2118;paint-order:markers stroke fill"
			x="248.1805"
			y="257.88153"
			id="text1"
			transform="skewY(0.24786637)"
	><tspan
       id="tspan1"
       x="248.1805"
       y="257.88153"
       style="font-size:182.952px;line-height:0;letter-spacing:0px;fill:#ffffff;fill-opacity:1;stroke-width:27.2118">CA</tspan></text>
	<style
			type="text/css"
			id="style1">
	.st0{fill:#000000;}
</style>
	<path
			class="st0"
			d="m 178.55405,335.89683 c -6.29743,-6.29973 -10.60779,-17.30071 -12.74688,-27.3102 -2.14241,10.01152 -6.44817,21.01481 -12.74792,27.31455 -6.29743,6.29539 -17.30173,10.60576 -27.30917,12.74917 10.01153,2.1391 21.01378,6.44691 27.31123,12.7469 6.29743,6.29744 10.60779,17.30072 12.7502,27.3102 2.13908,-10.01152 6.44817,-21.0148 12.74459,-27.31455 6.29743,-6.29743 17.30173,-10.60575 27.30918,-12.74918 -10.00924,-2.13908 -21.01148,-6.44921 -27.31123,-12.74689 z"
			id="path1-7"
			style="fill:#ffffff;fill-opacity:1;stroke-width:0.255473"/></svg>
