<svg xmlns="http://www.w3.org/2000/svg" xml:space="preserve" fill-rule="evenodd" stroke-linejoin="round"
	 stroke-miterlimit="2" clip-rule="evenodd" viewBox="0 0 512 512">
  <g transform="translate(6 6) scale(5.85938)">
    <clipPath id="a">
      <path d="M0 0h85.333v85.333H0z"/>
    </clipPath>
	  <g fill-rule="nonzero" clip-path="url(#a)">
      <path fill="#00d886"
			d="M63.4 77.333h16.345c3.017 0 5.5-2.483 5.5-5.5l-.001-.087-.235-14.725a5.505 5.505 0 0 0-1.92-4.088L32.212 9.324A5.5 5.5 0 0 0 28.632 8H13.5C10.483 8 8 10.483 8 13.5v14.67a5.5 5.5 0 0 0 1.879 4.14l49.9 43.663a5.498 5.498 0 0 0 3.62 1.36z"
			style="fill:#f46036;fill-opacity:1"/>
		  <path fill="url(#b)"
				d="M49.013 58h10.862C62.138 58 64 56.138 64 53.875V41.309c0-.2-.014-.4-.044-.598L58.508 3.527A4.138 4.138 0 0 0 54.427 0H39.029c-2.263 0-4.125 1.862-4.125 4.125v.001l.005 18.505c0 .425.066.848.195 1.253l9.979 31.246a4.135 4.135 0 0 0 3.93 2.87z"
				transform="scale(1.33333)"/>
		  <path fill="url(#c)"
				d="M4.125 64h34.127a4.132 4.132 0 0 0 3.8-2.52L57.85 24.057c.219-.518.33-1.076.324-1.638l-.15-18.329C58.005 1.841 56.15 0 53.9 0H36.234a4.13 4.13 0 0 0-2.266.678L1.86 21.787A4.128 4.128 0 0 0 0 25.234v34.641C0 62.138 1.862 64 4.125 64Z"
				transform="scale(1.33333)"/>
		  <path d="M16 16h53.333v53.333H16Z"/>
    </g>
  </g>
	<defs>
    <linearGradient id="b" x1="0" x2="1" y1="0" y2="0" gradientTransform="rotate(-114.874 50.182 7.604) scale(58.921)"
					gradientUnits="userSpaceOnUse">
      <stop offset="0" stop-color="#00d886" style="stop-color:#f46036;stop-opacity:1"/>
		<stop offset=".24" stop-color="#00d886" style="stop-color:#f46036;stop-opacity:1"/>
		<stop offset=".51" stop-color="#007dfe" style="stop-color:#0061ff;stop-opacity:1"/>
		<stop offset="1" stop-color="#007dfe" style="stop-color:#0061ff;stop-opacity:1"/>
    </linearGradient>
		<linearGradient id="c" x1="0" x2="1" y1="0" y2="0" gradientTransform="rotate(135 29.004 14.416) scale(82.867)"
						gradientUnits="userSpaceOnUse">
      <stop offset="0" stop-color="#007dfe" style="stop-color:#0061ff;stop-opacity:1"/>
			<stop offset=".27" stop-color="#007dfe" style="stop-color:#0061ff;stop-opacity:1"/>
			<stop offset=".7" stop-color="#d249fc" style="stop-color:#60efff;stop-opacity:1"/>
			<stop offset="1" stop-color="#d249fc" style="stop-color:#60efff;stop-opacity:1"/>
    </linearGradient>
  </defs>
	<path d="M190.515 260.077q-18.295 0-33.114-8.599-14.728-8.69-23.235-23.784-8.416-15.185-8.416-33.846 0-18.66 8.416-33.754 8.507-15.185 23.235-23.784 14.819-8.69 33.114-8.69 15.277 0 28.083 5.671 12.807 5.58 21.314 15.826 8.599 10.153 11.71 23.326h-23.968q-2.652-7.318-8.05-12.807-5.305-5.488-12.806-8.415-7.41-2.928-16.1-2.928-11.8 0-21.405 5.946-9.514 5.855-14.91 16.283-5.398 10.337-5.398 23.326 0 12.99 5.397 23.418 5.397 10.337 14.91 16.283 9.606 5.854 21.406 5.854 8.69 0 16.1-2.927 7.5-2.927 12.807-8.416 5.397-5.488 8.05-12.806h23.966q-3.11 13.172-11.709 23.418-8.507 10.153-21.314 15.825-12.806 5.58-28.083 5.58zm112.678-130.262H327.8l47.933 128.067h-23.052l-10.885-30.736h-51.41l-10.062 30.736h-23.6Zm32.474 79.401-18.387-51.318-2.012-7.958-1.921 7.958-17.29 51.318z"
		  aria-label="CA"
		  style="font-weight:600;font-size:182.952px;line-height:0;font-family:&quot;JetBrains Sans&quot;;-inkscape-font-specification:&quot;JetBrains Sans Semi-Bold&quot;;text-align:center;letter-spacing:0;text-anchor:middle;opacity:.989769;fill:#fff;stroke-width:27.2118;paint-order:markers stroke fill"
		  transform="skewY(.248)"/>
	<path d="M178.554 335.897c-6.297-6.3-10.608-17.3-12.747-27.31-2.142 10.011-6.448 21.014-12.748 27.314-6.297 6.296-17.301 10.606-27.309 12.75 10.012 2.138 21.014 6.446 27.311 12.746 6.298 6.298 10.608 17.301 12.75 27.31 2.14-10.011 6.449-21.014 12.745-27.314 6.298-6.298 17.302-10.606 27.31-12.75-10.01-2.138-21.012-6.448-27.312-12.746z"
		  style="fill:#fff;fill-opacity:1;stroke-width:.255473"/>
</svg>
