<svg xmlns="http://www.w3.org/2000/svg" viewBox="83.349 83.349 333.396 333.395"><path fill-rule="evenodd" d="M246.799 88.148c-9.194 11.195-16.158 19.685-21.511 26.29-5.354 6.602-9.096 11.322-11.845 14.975-2.749 3.655-4.506 6.244-5.888 8.591-1.382 2.347-2.389 4.447-3.637 7.13a449.514 449.514 0 0 1-2.04 4.325c-.27.564-.494 1.024-.656 1.353-.162.327-.262.52-.283.541-.02.022-.175.003-.433-.053-.26-.056-.627-.147-1.07-.263-.445-.12-.967-.264-1.544-.434-.575-.167-1.203-.356-1.856-.557-2.998-.927-5.27-1.627-7.463-2.15-2.192-.526-4.304-.879-6.983-1.115-2.677-.235-5.919-.359-10.374-.419-4.453-.065-10.116-.068-17.636-.07l-6.904-.004-6.905-.003h-6.905l-6.903-.003V206.054l-1.458.168-1.462.172-1.463.171-1.457.174a74.076 74.076 0 0 0-5.115.787 91.34 91.34 0 0 0-5.471 1.207 116.825 116.825 0 0 0-5.799 1.615 145.162 145.162 0 0 0-6.091 2.016 165.852 165.852 0 0 0-4.439 1.668 257.332 257.332 0 0 0-4.67 1.883c-1.46.606-2.758 1.164-3.689 1.592-.933.426-1.5.721-1.5.797 0 .116.198.681.528 1.55.333.868.804 2.037 1.347 3.358.542 1.324 1.161 2.8 1.792 4.281.634 1.48 1.282 2.967 1.879 4.31a152.369 152.369 0 0 0 11.763 21.507 149.056 149.056 0 0 0 14.736 18.962c5.336 5.818 11.061 11.095 17.067 15.712 6.004 4.618 12.29 8.577 18.749 11.759 3.206 1.58 6.36 2.99 9.49 4.241a113.43 113.43 0 0 0 9.327 3.275 102.367 102.367 0 0 0 18.673 3.807c2.333.253 4.95.404 7.711.46 2.764.054 5.675.014 8.595-.116 2.917-.13 5.846-.351 8.645-.654 2.801-.303 5.473-.691 7.879-1.154 1.075-.206 2.106-.4 3.049-.57.942-.172 1.798-.32 2.521-.441a60.839 60.839 0 0 1 1.734-.266c.419-.054.661-.073.686-.048.119.124-.052.567-.423 1.202-.37.634-.937 1.463-1.613 2.365a52.683 52.683 0 0 1-2.26 2.799c-.801.925-1.618 1.8-2.357 2.503a32.075 32.075 0 0 1-5.031 3.933 30.675 30.675 0 0 1-5.753 2.812c-2.073.763-4.316 1.357-6.783 1.803-2.468.445-5.159.743-8.125.91-3.78.212-7.181.607-10.288 1.225-3.108.615-5.922 1.45-8.529 2.54a36.492 36.492 0 0 0-7.278 4.07c-2.274 1.635-4.424 3.561-6.535 5.812a41.853 41.853 0 0 0-4.128 5.128 38.948 38.948 0 0 0-3.199 5.651 46.04 46.04 0 0 0-2.367 6.408c-.664 2.288-1.204 4.734-1.644 7.389-.167 1.015-.294 1.772-.437 2.379-.141.6-.293 1.047-.51 1.406-.221.37-.5.655-.901.965-.4.299-.912.614-1.599 1.036a25.872 25.872 0 0 0-11.286 14.507 25.301 25.301 0 0 0-1.071 9.051 24.38 24.38 0 0 0 2.364 9.001c1.094 2.267 2.597 4.335 4.375 6.149a26.06 26.06 0 0 0 6.028 4.552c2.193 1.208 4.527 2.07 6.86 2.513 2.335.453 4.668.489 6.865.032a22.729 22.729 0 0 0 3.301-.979 31.605 31.605 0 0 0 6.592-3.391c1-.681 1.919-1.393 2.71-2.127 1.635-1.507 3.007-3.348 4.091-5.404 1.087-2.059 1.887-4.331 2.377-6.708.489-2.382.673-4.868.522-7.341a26.57 26.57 0 0 0-1.473-7.306c-.433-1.212-1.08-2.474-1.89-3.724a27.74 27.74 0 0 0-2.863-3.653 29.908 29.908 0 0 0-3.507-3.229 23.64 23.64 0 0 0-3.829-2.459c-1.15-.582-2.013-1.019-2.64-1.424-.627-.405-1.018-.785-1.225-1.257-.207-.461-.23-1.02-.122-1.783.11-.767.35-1.73.671-3.027a30.108 30.108 0 0 1 2.786-7.159 29.829 29.829 0 0 1 4.418-6.117 29.433 29.433 0 0 1 5.793-4.788 29.443 29.443 0 0 1 6.914-3.201c.432-.136 1.079-.28 1.884-.423a58.063 58.063 0 0 1 2.825-.421 116.772 116.772 0 0 1 7.065-.67c2.884-.18 5.423-.413 7.715-.723 2.291-.308 4.335-.696 6.229-1.185a37.325 37.325 0 0 0 5.329-1.799 41.387 41.387 0 0 0 5.007-2.557c1.812-1.074 3.428-2.132 4.925-3.244a41.375 41.375 0 0 0 4.206-3.569 49.053 49.053 0 0 0 3.925-4.325c1.31-1.614 2.648-3.426 4.085-5.506l.859-1.244.859-1.244.861-1.245.859-1.244V368.982l-1.109.767-1.11.771-1.109.767-1.109.773c-1.689 1.172-3.127 2.321-4.354 3.514-1.227 1.202-2.244 2.438-3.092 3.795-.846 1.354-1.527 2.819-2.077 4.459-.55 1.647-.973 3.462-1.311 5.529-.404 2.473-.361 5.009.071 7.481a25.01 25.01 0 0 0 2.4 7.125 24.751 24.751 0 0 0 4.375 6.074c1.747 1.775 3.767 3.262 5.996 4.341 2.236 1.073 4.536 1.769 6.839 2.078 2.302.309 4.608.239 6.856-.197a21.784 21.784 0 0 0 6.516-2.409c2.075-1.165 4.035-2.682 5.816-4.547 1.128-1.178 2.053-2.299 2.806-3.434a15.81 15.81 0 0 0 1.777-3.58c.444-1.284.746-2.677.941-4.28.193-1.599.279-3.407.287-5.512.007-1.519.006-2.702-.027-3.67-.032-.98-.096-1.741-.213-2.43a10.815 10.815 0 0 0-.531-1.985c-.245-.678-.566-1.415-.986-2.342a23.418 23.418 0 0 0-1.953-3.518 22.321 22.321 0 0 0-2.468-3.048 22.88 22.88 0 0 0-2.981-2.561 24.87 24.87 0 0 0-3.486-2.085l-.962-.471-.959-.475-.963-.469-.961-.479-.004-7.195-.002-7.205-.003-7.204-.003-7.197c-.002-3.958.011-7.724.033-11.138.022-3.413.056-6.478.098-9.037.041-2.558.09-4.613.147-6.009.056-1.396.118-2.133.181-2.054.066.076.217.286.437.6s.506.73.842 1.222c.335.493.715 1.056 1.124 1.666.407.61.844 1.264 1.287 1.932a73.563 73.563 0 0 0 3.021 4.263 44.35 44.35 0 0 0 2.958 3.489 39.582 39.582 0 0 0 3.187 3.016 52.76 52.76 0 0 0 3.7 2.851c2.161 1.529 4.171 2.799 6.173 3.858a37.114 37.114 0 0 0 6.123 2.587c2.127.679 4.391 1.194 6.934 1.585 2.541.397 5.361.667 8.602.865a179.178 179.178 0 0 1 6.879.563c1.017.109 1.926.215 2.669.319.744.101 1.319.203 1.667.29 2.681.685 5.276 1.857 7.674 3.399a31.162 31.162 0 0 1 6.503 5.603 30.193 30.193 0 0 1 4.687 7.078c1.189 2.525 1.967 5.177 2.232 7.831l.092.909.089.904.087.909.09.906-.749.403-.748.396-.749.397-.751.405c-2.312 1.226-4.341 2.679-6.07 4.332a23.08 23.08 0 0 0-4.282 5.543 23.505 23.505 0 0 0-2.419 6.609c-.488 2.371-.648 4.882-.477 7.539a25.135 25.135 0 0 0 1.778 7.853 23.262 23.262 0 0 0 4.025 6.562 23.181 23.181 0 0 0 5.944 4.883c2.267 1.312 4.798 2.279 7.538 2.848 3.636.745 7.279.364 10.663-.863 3.378-1.23 6.493-3.317 9.073-5.966 2.588-2.658 4.635-5.888 5.881-9.406 1.25-3.523 1.695-7.343 1.069-11.181a27.112 27.112 0 0 0-1.534-5.562 26.58 26.58 0 0 0-2.643-5.028 25.973 25.973 0 0 0-3.615-4.287 24.685 24.685 0 0 0-4.467-3.366c-.496-.291-.971-.58-1.413-.858a56.53 56.53 0 0 1-1.204-.771 22.755 22.755 0 0 1-.864-.607c-.213-.166-.35-.289-.389-.356-.038-.061-.098-.25-.172-.53-.076-.28-.161-.653-.264-1.087a68.054 68.054 0 0 1-.312-1.49c-.107-.548-.224-1.137-.333-1.731a48.109 48.109 0 0 0-1.067-4.517 60.829 60.829 0 0 0-1.527-4.631 58.602 58.602 0 0 0-1.85-4.39 38.93 38.93 0 0 0-2.043-3.772c-1.241-1.99-2.725-3.892-4.392-5.677a42.454 42.454 0 0 0-5.508-4.921 43.28 43.28 0 0 0-6.31-3.936 39.383 39.383 0 0 0-6.804-2.715 26.655 26.655 0 0 0-2.318-.543 62.19 62.19 0 0 0-3.034-.514 95.785 95.785 0 0 0-3.51-.447 108.69 108.69 0 0 0-3.738-.343 145.748 145.748 0 0 1-3.552-.312 150.84 150.84 0 0 1-3.454-.382 99.422 99.422 0 0 1-2.96-.408 28.917 28.917 0 0 1-2.075-.384 30.747 30.747 0 0 1-4.196-1.327 35.032 35.032 0 0 1-7.91-4.401 32.415 32.415 0 0 1-3.414-2.908 46.854 46.854 0 0 1-2.568-2.734 39.15 39.15 0 0 1-2.085-2.603c-.581-.801-1.029-1.509-1.296-2.056-.267-.547-.35-.932-.203-1.088.04-.043.32-.037.79.012.47.048 1.132.134 1.937.258.804.121 1.75.277 2.791.46 1.04.183 2.174.389 3.354.617 1.931.373 3.512.663 4.974.889 1.461.224 2.804.386 4.26.502 1.458.115 3.027.185 4.945.227 1.916.042 4.177.057 7.018.063 3.383.006 6.124-.013 8.495-.09 2.371-.077 4.374-.211 6.275-.436a56.665 56.665 0 0 0 5.691-.978c1.98-.438 4.133-.998 6.733-1.711a121.102 121.102 0 0 0 14.865-5.121 115.324 115.324 0 0 0 13.83-6.938 118.235 118.235 0 0 0 12.879-8.808 130.79 130.79 0 0 0 12.022-10.726 158.162 158.162 0 0 0 9.199-10.078 138.187 138.187 0 0 0 7.996-10.536 143.386 143.386 0 0 0 6.994-11.299c2.186-3.928 4.235-8.035 6.198-12.372a253.417 253.417 0 0 0 2.634-6.003 87.543 87.543 0 0 0 1.705-4.279c.409-1.15.679-2.032.798-2.665.128-.632.104-1.015-.045-1.165-.214-.21-1.148-.675-2.511-1.281a142.574 142.574 0 0 0-5.077-2.122 209.816 209.816 0 0 0-5.886-2.258c-1.906-.704-3.651-1.308-4.952-1.704a125.728 125.728 0 0 0-4.796-1.347c-1.667-.431-3.355-.84-5.008-1.208a126.196 126.196 0 0 0-4.76-.966 69.688 69.688 0 0 0-4.075-.626l-.882-.104-.871-.104-.879-.103-.871-.103v-59.857l-6.841.006-6.831.006-6.835.006-6.832.005c-7.351.011-12.955.02-17.41.088-4.458.068-7.767.189-10.525.415-2.759.224-4.968.551-7.222 1.027-2.255.48-4.557 1.109-7.503 1.94-.642.181-1.259.348-1.827.495a62.82 62.82 0 0 1-1.522.376c-.438.104-.799.175-1.057.219-.26.044-.412.054-.436.027a7.769 7.769 0 0 1-.299-.563c-.17-.338-.404-.813-.687-1.39-.281-.577-.611-1.26-.971-2.01-.362-.746-.752-1.563-1.157-2.413-1.245-2.612-2.184-4.582-3.244-6.492-1.058-1.909-2.235-3.761-3.954-6.142-1.719-2.382-3.98-5.287-7.207-9.314-3.226-4.023-7.42-9.159-13-15.996a3637.889 3637.889 0 0 0-9.559-11.68 677.272 677.272 0 0 0-5.899-7.094c-1.449-1.715-2.431-2.831-3.083-3.517-.654-.684-.98-.941-1.118-.932-.042.002-.191.139-.428.385-.237.244-.557.596-.941 1.031a137.034 137.034 0 0 0-2.862 3.383m19.616 33.423c3.861 4.741 7.161 8.908 9.952 12.593 2.794 3.688 5.079 6.889 6.914 9.697 1.835 2.804 3.219 5.212 4.208 7.306.989 2.094 1.582 3.875 1.836 5.433.066.401.102.724.081 1.008a1.52 1.52 0 0 1-.25.763c-.157.243-.392.479-.734.75-.341.273-.787.583-1.365.965-.927.615-2.146 1.612-3.519 2.848a98.823 98.823 0 0 0-4.432 4.279 125.105 125.105 0 0 0-4.508 4.851c-1.422 1.618-2.717 3.189-3.746 4.571a87.286 87.286 0 0 0-3.398 4.947 117.945 117.945 0 0 0-3.346 5.553 115.385 115.385 0 0 0-3.01 5.658 77.242 77.242 0 0 0-2.386 5.261c-.949 2.347-1.869 5.011-2.716 7.805a129.746 129.746 0 0 0-2.271 8.564 107.743 107.743 0 0 0-1.566 8.176c-.373 2.534-.587 4.808-.594 6.636-.006 1.772-.06 3.059-.156 3.862-.096.804-.237 1.124-.421.962-.183-.163-.41-.808-.68-1.936-.269-1.126-.58-2.735-.933-4.826a227.234 227.234 0 0 0-1.504-8.009 222.486 222.486 0 0 0-1.727-7.721 161.415 161.415 0 0 0-1.795-6.802c-.594-2.04-1.173-3.824-1.713-5.24a76.983 76.983 0 0 0-2.066-4.821 133.751 133.751 0 0 0-2.714-5.479 138.753 138.753 0 0 0-2.972-5.407c-.993-1.706-1.962-3.276-2.85-4.589-.793-1.178-1.907-2.629-3.209-4.206a132.358 132.358 0 0 0-4.32-4.964 140.146 140.146 0 0 0-4.61-4.82c-1.493-1.484-2.898-2.791-4.077-3.775a37.9 37.9 0 0 1-1.36-1.195c-.42-.388-.796-.755-1.114-1.084a9.952 9.952 0 0 1-.753-.857c-.179-.234-.276-.41-.276-.507 0-.306.271-1.1.722-2.184a79.415 79.415 0 0 1 1.795-3.944 133.745 133.745 0 0 1 2.303-4.541 76.83 76.83 0 0 1 2.253-3.981 82.09 82.09 0 0 1 4.557-6.681 160.983 160.983 0 0 1 3.194-4.08 580.435 580.435 0 0 1 4.452-5.432c.651-.783 1.48-1.783 2.421-2.923.941-1.143 1.996-2.42 3.097-3.754l3.372-4.097c1.127-1.369 2.233-2.714 3.252-3.955l1.854-2.26 1.854-2.255 1.853-2.26 1.854-2.256.32.344.319.346.32.345.318.347c.177.189.702.811 1.5 1.767.799.954 1.87 2.25 3.138 3.789 1.267 1.537 2.73 3.32 4.315 5.254a5392.88 5392.88 0 0 1 5.037 6.161m-82.417 38.792c1.178.262 2.409.574 3.618.918 1.211.341 2.4.711 3.493 1.084a42.55 42.55 0 0 1 2.922 1.099c.831.353 1.491.681 1.911.965.147.1.251.269.31.553.056.29.066.697.028 1.277a31.26 31.26 0 0 1-.272 2.311c-.144.975-.34 2.177-.596 3.65a93.736 93.736 0 0 0-.638 4.204 62.889 62.889 0 0 0-.383 4.097c-.09 1.451-.15 3.043-.183 4.932a361.979 361.979 0 0 0-.047 6.719c.003 2.857.014 5.119.049 7.01a84.77 84.77 0 0 0 .198 4.785c.103 1.368.246 2.591.45 3.886.203 1.293.463 2.656.8 4.32.204 1.01.431 2.091.663 3.179a314.558 314.558 0 0 0 1.379 6.11c.205.864.391 1.61.543 2.176.151.564.292 1.107.416 1.606.123.498.233.952.32 1.338.086.384.153.701.192.927.041.226.054.359.035.38-.019.018-.201-.063-.514-.227a41.752 41.752 0 0 1-1.3-.722 181.241 181.241 0 0 1-4.174-2.478 252.049 252.049 0 0 0-5.638-3.344 122.956 122.956 0 0 0-4.784-2.61 97.139 97.139 0 0 0-4.538-2.185 129.294 129.294 0 0 0-4.896-2.076 134.341 134.341 0 0 0-7.94-2.908 123.422 123.422 0 0 0-7.778-2.31 100.983 100.983 0 0 0-7.365-1.634c-2.354-.426-4.598-.73-6.687-.896l-1.181-.097-1.183-.095-1.184-.096-1.184-.093V159.226h5.012l5.009.002 5.013.003 5.01.004c4.384.003 7.872.01 10.7.04 2.829.029 5.004.079 6.77.157 1.764.082 3.118.189 4.306.343 1.19.149 2.215.343 3.318.588m180.275 21.772c0 3.568-.017 6.792-.041 9.622a494.756 494.756 0 0 1-.109 7.28c-.05 1.999-.106 3.565-.172 4.641-.067 1.075-.145 1.667-.231 1.723-.073.045-.35.115-.777.205-.433.083-1.026.182-1.724.289-.699.109-1.516.225-2.404.345-.891.116-1.85.235-2.839.353-2.119.247-4.27.576-6.457.991-2.186.414-4.409.916-6.678 1.505a121.054 121.054 0 0 0-6.96 2.024 152.346 152.346 0 0 0-7.295 2.569 209.222 209.222 0 0 0-5.003 1.951 57.02 57.02 0 0 0-3.745 1.68 69.112 69.112 0 0 0-3.878 2.098 332.683 332.683 0 0 0-5.409 3.205c-.872.525-1.713 1.015-2.487 1.453-.774.438-1.48.825-2.084 1.14-.604.315-1.104.558-1.465.71-.36.154-.58.217-.623.171-.046-.047-.054-.237-.032-.541.022-.301.073-.717.151-1.217.079-.5.182-1.081.308-1.717.124-.636.271-1.324.433-2.035.718-3.137 1.262-5.543 1.68-7.586.418-2.044.709-3.724.921-5.425.209-1.696.339-3.408.436-5.506.096-2.099.157-4.586.233-7.833.063-2.854.107-5.142.117-7.069a98.497 98.497 0 0 0-.072-4.895 52.017 52.017 0 0 0-.317-3.938 91.212 91.212 0 0 0-.615-4.194c-.425-2.577-.748-4.484-.935-5.915-.187-1.434-.237-2.394-.113-3.079.122-.687.418-1.098.922-1.435.503-.333 1.214-.59 2.17-.973 1.924-.764 3.588-1.36 5.353-1.827 1.769-.464 3.638-.8 5.976-1.037 2.341-.24 5.148-.386 8.793-.474 3.643-.086 8.121-.116 13.801-.127l5.289-.013 5.295-.009 5.291-.01 5.296-.009V182.135m-69.601-6.88c.548 2.96.955 5.743 1.219 8.451.265 2.711.386 5.344.366 7.997a79.357 79.357 0 0 1-.494 8.118c-.309 2.793-.76 5.698-1.357 8.823a120.297 120.297 0 0 1-2.073 9.064 93.476 93.476 0 0 1-2.631 8.219 84.815 84.815 0 0 1-3.302 7.672 92.33 92.33 0 0 1-4.082 7.421c-.606.99-1.67 2.502-2.99 4.273a233.924 233.924 0 0 1-4.513 5.838 255.721 255.721 0 0 1-4.805 5.854c-1.513 1.781-2.866 3.304-3.856 4.315l-.722.734-.721.735-.722.736-.721.735.056-4.707.057-4.705.057-4.708.056-4.707c.05-4.111.098-7.386.159-10.062.061-2.677.135-4.754.233-6.468.098-1.713.224-3.063.388-4.286.164-1.222.37-2.317.627-3.52.858-4.003 1.857-7.773 3.018-11.359a91.917 91.917 0 0 1 3.98-10.232 83.992 83.992 0 0 1 5.067-9.364 88.54 88.54 0 0 1 6.265-8.75 50.02 50.02 0 0 1 2.817-3.154 60.67 60.67 0 0 1 3.068-2.974c.993-.898 1.922-1.664 2.678-2.21.755-.544 1.34-.865 1.645-.865.091 0 .194.088.301.241.109.158.222.385.334.665.111.28.222.612.323.983.103.369.196.776.275 1.197m-80.277 2.648a75.927 75.927 0 0 1 6.911 8.305 73.27 73.27 0 0 1 5.635 9.261c1.687 3.285 3.193 6.794 4.55 10.587 1.357 3.796 2.568 7.871 3.661 12.295.345 1.399.61 2.524.815 3.701.206 1.178.353 2.41.464 4.024.111 1.613.186 3.608.247 6.315.061 2.707.109 6.124.165 10.579.054 4.195.089 7.459.102 9.99.011 2.531-.002 4.327-.045 5.585-.043 1.26-.117 1.98-.23 2.357-.111.377-.261.41-.455.297-.284-.166-1.032-.941-2.056-2.097a163.938 163.938 0 0 1-3.724-4.387 277.95 277.95 0 0 1-4.278-5.33 165.187 165.187 0 0 1-3.722-4.921c-.943-1.31-2.005-3.003-3.099-4.907a120.946 120.946 0 0 1-3.296-6.173 123.814 123.814 0 0 1-2.978-6.409c-.882-2.062-1.626-3.99-2.147-5.615-.2-.627-.424-1.386-.661-2.22-.235-.835-.48-1.744-.72-2.672-.241-.932-.477-1.879-.696-2.791-.218-.913-.416-1.79-.581-2.572-.523-2.493-.884-6.133-1.096-10.197-.21-4.061-.269-8.544-.191-12.714.077-4.169.291-8.029.628-10.848.339-2.815.799-4.589 1.369-4.589.07 0 .273.143.583.406.311.262.726.637 1.218 1.104a92.232 92.232 0 0 1 1.675 1.639c.614.615 1.276 1.292 1.952 1.997m147.892 44.713a72.886 72.886 0 0 1-2.682 13.045 83.051 83.051 0 0 1-2.284 6.541 99.87 99.87 0 0 1-2.948 6.692c-.953 1.963-1.833 3.674-2.722 5.249a55.213 55.213 0 0 1-2.765 4.421 59.07 59.07 0 0 1-3.282 4.282c-1.238 1.478-2.641 3.049-4.286 4.824a99.322 99.322 0 0 1-4.379 4.467 56.867 56.867 0 0 1-4.085 3.529 50.785 50.785 0 0 1-4.309 2.994 77.656 77.656 0 0 1-5.05 2.864c-2.335 1.226-4.507 2.213-6.788 3.001-2.283.789-4.676 1.379-7.46 1.817-2.785.438-5.96.722-9.807.895-3.848.177-8.366.242-13.835.242h-15.613l.092-.332.092-.329.091-.332.092-.331c.156-.57.68-1.683 1.438-3.121.758-1.437 1.753-3.2 2.857-5.07a198.824 198.824 0 0 1 3.51-5.721c1.193-1.87 2.366-3.633 3.393-5.067 4.933-6.904 10.419-13.171 16.337-18.729 5.918-5.557 12.267-10.402 18.927-14.467 6.657-4.06 13.622-7.338 20.777-9.756 7.153-2.419 14.496-3.978 21.907-4.603.307-.026.614-.055.903-.083.294-.026.569-.054.815-.08.244-.027.459-.05.625-.073.171-.02.298-.04.361-.052.061-.015.114.068.147.229.037.159.057.396.064.694.009.298 0 .656-.022 1.055-.021.398-.055.84-.111 1.305m-234.672 3.825a114.366 114.366 0 0 0 2.627 10.853 124.413 124.413 0 0 0 3.665 10.699 111.86 111.86 0 0 0 4.473 9.949c1.6 3.124 3.294 6.028 5.044 8.608 1.248 1.837 2.757 3.809 4.432 5.818a113.233 113.233 0 0 0 5.417 6.027 112.541 112.541 0 0 0 5.825 5.635c1.944 1.748 3.861 3.33 5.651 4.645.823.603 1.596 1.185 2.287 1.72a70.86 70.86 0 0 1 1.804 1.433c.5.416.89.757 1.137 1.002.249.246.356.392.293.415-.191.073-.909-.117-1.974-.493-1.067-.377-2.477-.94-4.054-1.61a149.921 149.921 0 0 1-5.038-2.258 123.333 123.333 0 0 1-4.924-2.44c-5.368-2.834-10.555-6.203-15.493-10.041-4.937-3.838-9.626-8.145-14.008-12.851a128.174 128.174 0 0 1-12.152-15.262 132.436 132.436 0 0 1-10.919-19.393 79.42 79.42 0 0 1-.789-1.772c-.219-.51-.392-.93-.503-1.229-.111-.301-.162-.477-.136-.503.025-.027.173-.094.413-.194.243-.101.581-.234.992-.39.408-.156.892-.334 1.42-.527.529-.192 1.104-.399 1.701-.61 1.203-.422 2.739-.867 4.431-1.296 1.691-.432 3.538-.848 5.357-1.212a97.367 97.367 0 0 1 5.21-.908c1.589-.228 2.975-.368 3.977-.387l.648-.011.645-.012.647-.011.644-.013.314 1.655.313 1.655.313 1.653.31 1.656m22.786-5.433c3.839.688 7.777 1.704 11.735 3.01a104.706 104.706 0 0 1 11.869 4.757 114.066 114.066 0 0 1 11.55 6.292 111.395 111.395 0 0 1 10.78 7.614c1.14.911 2.637 2.255 4.302 3.832a198.066 198.066 0 0 1 5.315 5.249 207.22 207.22 0 0 1 5.199 5.51c1.587 1.751 2.967 3.354 3.951 4.615a132.92 132.92 0 0 1 4.794 6.587 159.9 159.9 0 0 1 4.508 6.955c1.383 2.26 2.609 4.404 3.567 6.251.96 1.847 1.654 3.398 1.972 4.475l.097.331.098.332.096.329.098.332-3.829-.002h-3.83l-3.829-.001-3.829-.001c-5.327-.001-9.668-.061-13.345-.231-3.675-.171-6.689-.453-9.359-.904-2.671-.45-4.998-1.063-7.305-1.9-2.306-.833-4.591-1.889-7.176-3.218-2.973-1.528-5.897-3.414-8.713-5.593a69.588 69.588 0 0 1-8.062-7.337 74.923 74.923 0 0 1-7.019-8.673 70.592 70.592 0 0 1-5.597-9.605 110.389 110.389 0 0 1-3.31-7.694 113.178 113.178 0 0 1-2.682-7.737c-.762-2.493-1.376-4.854-1.8-6.944-.426-2.09-.66-3.909-.663-5.317 0-.614 0-1.076.034-1.425.031-.349.095-.586.216-.745.12-.158.3-.242.567-.284.267-.043.62-.046 1.086-.046.262 0 .698.033 1.263.093.564.059 1.255.148 2.025.254a144.445 144.445 0 0 1 5.226.839m236.019.24c.933.175 2.253.488 3.715.865 1.456.379 3.058.822 4.56 1.263 1.507.443 2.913.88 3.968 1.243 1.073.363 1.798.653 1.946.796.071.07-.079.541-.415 1.31a65.872 65.872 0 0 1-1.465 3.088 154.534 154.534 0 0 1-2.187 4.234 204.834 204.834 0 0 1-2.607 4.741c-2.85 5.043-6.104 9.942-9.649 14.602a134.275 134.275 0 0 1-11.45 13.171c-4.053 4.087-8.319 7.846-12.695 11.178-4.38 3.332-8.873 6.24-13.391 8.629a99.578 99.578 0 0 1-4.196 2.086 115.939 115.939 0 0 1-4.196 1.884 57.036 57.036 0 0 1-3.358 1.32c-.884.307-1.484.461-1.66.398-.07-.024.011-.157.217-.379.209-.222.542-.53.974-.903.433-.372.969-.81 1.571-1.289a86.474 86.474 0 0 1 2.01-1.544 90.613 90.613 0 0 0 8.518-7.189 86.258 86.258 0 0 0 7.448-8.077 88.905 88.905 0 0 0 6.418-9.016 96.79 96.79 0 0 0 5.431-10.008 121.227 121.227 0 0 0 2.937-6.703 90.39 90.39 0 0 0 2.303-6.334 88.777 88.777 0 0 0 1.802-6.418 114.641 114.641 0 0 0 1.451-6.953l.308-1.707.308-1.71.304-1.708.309-1.707h2.358l.783.001c.431 0 .969.023 1.573.065.603.042 1.275.105 1.961.18.695.076 1.406.166 2.101.266.7.099 1.376.21 1.995.325M166.406 383.113c1.013.674 1.87 1.616 2.55 2.716a12.28 12.28 0 0 1 1.488 3.697c.306 1.33.411 2.723.296 4.081-.117 1.355-.453 2.682-1.035 3.884-.43.883-.929 1.664-1.495 2.349a9.173 9.173 0 0 1-1.902 1.749c-.7.487-1.466.867-2.296 1.151-.83.277-1.726.456-2.681.526-1.012.073-1.966.04-2.87-.117a9.33 9.33 0 0 1-2.543-.823 9.35 9.35 0 0 1-2.234-1.52 12.478 12.478 0 0 1-1.935-2.237c-.756-1.096-1.265-2.376-1.536-3.725a12.867 12.867 0 0 1-.131-4.175 12.48 12.48 0 0 1 1.187-3.946c.611-1.205 1.421-2.269 2.424-3.071a10.162 10.162 0 0 1 2.944-1.62 11.424 11.424 0 0 1 3.332-.643 11.385 11.385 0 0 1 3.373.354c1.091.289 2.134.744 3.064 1.37m178.851-.567c.489.253 1.033.67 1.595 1.179a17.33 17.33 0 0 1 1.634 1.741c.519.623.989 1.274 1.358 1.891.37.613.64 1.184.748 1.647.049.205.089.485.119.83.03.333.047.73.057 1.153.012.42.007.874-.004 1.327-.011.448-.034.909-.07 1.343-.175 2.217-.967 4.14-2.15 5.678a10.678 10.678 0 0 1-4.521 3.398c-1.75.683-3.674.909-5.545.576-1.87-.335-3.695-1.225-5.24-2.757-.608-.603-1.111-1.181-1.524-1.774a8.181 8.181 0 0 1-.975-1.853 10.053 10.053 0 0 1-.52-2.168c-.109-.808-.156-1.702-.156-2.73 0-1.025.074-1.953.224-2.797.15-.846.382-1.61.703-2.31a8.47 8.47 0 0 1 1.25-1.968c.511-.614 1.128-1.186 1.855-1.751.686-.539 1.519-.953 2.433-1.259.917-.3 1.908-.482 2.922-.543a12.315 12.315 0 0 1 3.034.196 9.827 9.827 0 0 1 2.773.951m-88.708 1.375c.491.367 1.018.95 1.537 1.655a18.7 18.7 0 0 1 1.466 2.394c.444.857.828 1.734 1.102 2.551.273.817.435 1.563.437 2.147.002.756-.207 1.649-.571 2.599a16.37 16.37 0 0 1-1.496 2.891 17.453 17.453 0 0 1-2.061 2.638c-.742.779-1.519 1.42-2.272 1.826a7.71 7.71 0 0 1-2.846.874 9.913 9.913 0 0 1-3.1-.137 10.47 10.47 0 0 1-2.96-1.073 8.914 8.914 0 0 1-2.424-1.938 12.316 12.316 0 0 1-2.873-6.203 11.62 11.62 0 0 1-.031-3.351c.15-1.098.467-2.174.955-3.177.515-1.054 1.042-1.928 1.629-2.638.583-.706 1.223-1.254 1.966-1.662.741-.405 1.584-.667 2.57-.818.988-.152 2.119-.187 3.438-.134.7.031 1.307.075 1.844.141a9.71 9.71 0 0 1 1.434.278c.427.122.811.268 1.179.455a8.29 8.29 0 0 1 1.077.682" style="stroke-opacity:0"/></svg>